<svg width="513" height="512" viewBox="0 0 513 512" fill="none" xmlns="http://www.w3.org/2000/svg">
<g clip-path="url(#clip0_211_41)">
<rect width="512" height="512" transform="translate(0.644531)" fill="#0A0606"/>
<g filter="url(#filter0_f_211_41)">
<rect x="-73.311" y="-167.822" width="660.107" height="335.17" rx="167.585" fill="#E21E1E" fill-opacity="0.25"/>
</g>
<g filter="url(#filter1_d_211_41)">
<path d="M174.877 407.683C151.874 411.022 128.902 414.989 106.232 419.598L234.785 119.406L314.369 112.356L386.809 394.318C365.153 393.803 342.565 393.933 319.367 394.726L269.322 182.483L267.04 182.685L174.877 407.683Z" fill="white"/>
</g>
<g filter="url(#filter2_d_211_41)">
<path d="M166.566 278.71L166.947 277.82C102.78 293.24 55.5729 313.903 47.7117 332.659C35.7331 361.239 119.645 374.568 235.135 362.429C350.624 350.291 453.958 317.282 465.936 288.702C475.222 266.548 426.886 253.558 350.886 254.491L350.955 254.757C402.105 254.673 434.006 262.173 428.513 275.278C420.737 293.83 340.973 316.59 250.355 326.115C159.737 335.639 92.5799 328.321 100.355 309.769C104.564 299.727 129.867 288.452 166.566 278.71Z" fill="url(#paint0_radial_211_41)" shape-rendering="crispEdges"/>
<path d="M287.145 258.069L287.144 258.067C284.288 258.34 281.41 258.628 278.513 258.933C263.201 260.542 248.103 262.518 233.404 264.802L233.373 264.878C247.901 262.569 263.049 260.558 278.513 258.933C281.415 258.628 284.293 258.34 287.145 258.069Z" fill="url(#paint1_radial_211_41)" shape-rendering="crispEdges"/>
</g>
<path d="M495.578 403.646C375.58 383.729 180.399 393.792 21.0297 440.544C-138.34 487.295 -37.0444 463.644 -37.0444 463.644L-30.1703 524.089H584.23L597.03 440.544C597.03 440.544 615.576 423.563 495.578 403.646Z" fill="url(#paint2_linear_211_41)" stroke="url(#paint3_radial_211_41)" stroke-width="7.58519"/>
</g>
<defs>
<filter id="filter0_f_211_41" x="-509.971" y="-604.482" width="1533.43" height="1208.49" filterUnits="userSpaceOnUse" color-interpolation-filters="sRGB">
<feFlood flood-opacity="0" result="BackgroundImageFix"/>
<feBlend mode="normal" in="SourceGraphic" in2="BackgroundImageFix" result="shape"/>
<feGaussianBlur stdDeviation="218.33" result="effect1_foregroundBlur_211_41"/>
</filter>
<filter id="filter1_d_211_41" x="45.5505" y="51.6741" width="401.94" height="428.605" filterUnits="userSpaceOnUse" color-interpolation-filters="sRGB">
<feFlood flood-opacity="0" result="BackgroundImageFix"/>
<feColorMatrix in="SourceAlpha" type="matrix" values="0 0 0 0 0 0 0 0 0 0 0 0 0 0 0 0 0 0 127 0" result="hardAlpha"/>
<feOffset/>
<feGaussianBlur stdDeviation="30.3407"/>
<feComposite in2="hardAlpha" operator="out"/>
<feColorMatrix type="matrix" values="0 0 0 0 1 0 0 0 0 1 0 0 0 0 1 0 0 0 0.3 0"/>
<feBlend mode="normal" in2="BackgroundImageFix" result="effect1_dropShadow_211_41"/>
<feBlend mode="normal" in="SourceGraphic" in2="effect1_dropShadow_211_41" result="shape"/>
</filter>
<filter id="filter2_d_211_41" x="16.2325" y="224.103" width="481.183" height="173.155" filterUnits="userSpaceOnUse" color-interpolation-filters="sRGB">
<feFlood flood-opacity="0" result="BackgroundImageFix"/>
<feColorMatrix in="SourceAlpha" type="matrix" values="0 0 0 0 0 0 0 0 0 0 0 0 0 0 0 0 0 0 127 0" result="hardAlpha"/>
<feOffset/>
<feGaussianBlur stdDeviation="15.1704"/>
<feComposite in2="hardAlpha" operator="out"/>
<feColorMatrix type="matrix" values="0 0 0 0 0.886275 0 0 0 0 0.117647 0 0 0 0 0.117647 0 0 0 0.5 0"/>
<feBlend mode="normal" in2="BackgroundImageFix" result="effect1_dropShadow_211_41"/>
<feBlend mode="normal" in="SourceGraphic" in2="effect1_dropShadow_211_41" result="shape"/>
</filter>
<radialGradient id="paint0_radial_211_41" cx="0" cy="0" r="1" gradientUnits="userSpaceOnUse" gradientTransform="translate(195.252 403.437) rotate(79.3558) scale(136.03 508.569)">
<stop offset="0.198608" stop-color="#E21E1E"/>
<stop offset="1" stop-color="#E21E1E" stop-opacity="0"/>
</radialGradient>
<radialGradient id="paint1_radial_211_41" cx="0" cy="0" r="1" gradientUnits="userSpaceOnUse" gradientTransform="translate(195.252 403.437) rotate(79.3558) scale(136.03 508.569)">
<stop offset="0.198608" stop-color="#E21E1E"/>
<stop offset="1" stop-color="#E21E1E" stop-opacity="0"/>
</radialGradient>
<linearGradient id="paint2_linear_211_41" x1="258.304" y1="393.956" x2="266.909" y2="520.838" gradientUnits="userSpaceOnUse">
<stop stop-color="#FF0000" stop-opacity="0.2"/>
<stop offset="0.624977" stop-color="#FF0000" stop-opacity="0"/>
</linearGradient>
<radialGradient id="paint3_radial_211_41" cx="0" cy="0" r="1" gradientUnits="userSpaceOnUse" gradientTransform="translate(175.815 410.785) rotate(-77.0247) scale(105.57 540.969)">
<stop stop-color="#E21E1E"/>
<stop offset="1"/>
</radialGradient>
<clipPath id="clip0_211_41">
<rect width="512" height="512" fill="white" transform="translate(0.644531)"/>
</clipPath>
</defs>
</svg>
