<svg width="512" height="512" viewBox="0 0 512 512" fill="none" xmlns="http://www.w3.org/2000/svg">
<g clip-path="url(#clip0_211_47)">
<rect width="512" height="512" fill="#0A0606"/>
<g filter="url(#filter0_f_211_47)">
<rect x="-73.9556" y="-167.822" width="660.107" height="335.17" rx="167.585" fill="#FFB800" fill-opacity="0.25"/>
</g>
<g filter="url(#filter1_d_211_47)">
<path d="M174.233 407.683C151.23 411.022 128.258 414.989 105.588 419.598L234.141 119.406L313.725 112.356L386.165 394.318C364.509 393.803 341.921 393.933 318.723 394.726L268.678 182.483L266.396 182.685L174.233 407.683Z" fill="white"/>
</g>
<g filter="url(#filter2_d_211_47)">
<path d="M165.921 278.71L166.302 277.819C102.135 293.24 54.9284 313.903 47.0672 332.659C35.0885 361.239 119.001 374.567 234.49 362.429C349.98 350.291 453.313 317.282 465.292 288.702C474.577 266.548 426.241 253.558 350.242 254.491L350.31 254.757C401.46 254.673 433.361 262.173 427.868 275.278C420.093 293.83 340.329 316.59 249.711 326.114C159.093 335.639 91.9354 328.321 99.711 309.769C103.92 299.727 129.222 288.451 165.921 278.71Z" fill="url(#paint0_radial_211_47)" shape-rendering="crispEdges"/>
<path d="M286.5 258.069L286.5 258.067C283.643 258.339 280.766 258.628 277.869 258.932C262.557 260.542 247.459 262.518 232.759 264.802L232.728 264.878C247.256 262.569 262.404 260.558 277.869 258.932C280.77 258.627 283.648 258.34 286.5 258.069Z" fill="url(#paint1_radial_211_47)" shape-rendering="crispEdges"/>
</g>
<path d="M490.399 403.646C370.401 383.729 175.221 393.792 15.8512 440.544C-143.518 487.295 -42.2229 463.644 -42.2229 463.644L-35.3488 524.089H579.051L591.851 440.544C591.851 440.544 610.398 423.563 490.399 403.646Z" fill="url(#paint2_linear_211_47)" stroke="#FFB800" stroke-width="7.58519"/>
</g>
<defs>
<filter id="filter0_f_211_47" x="-510.615" y="-604.482" width="1533.43" height="1208.49" filterUnits="userSpaceOnUse" color-interpolation-filters="sRGB">
<feFlood flood-opacity="0" result="BackgroundImageFix"/>
<feBlend mode="normal" in="SourceGraphic" in2="BackgroundImageFix" result="shape"/>
<feGaussianBlur stdDeviation="218.33" result="effect1_foregroundBlur_211_47"/>
</filter>
<filter id="filter1_d_211_47" x="44.9064" y="51.6741" width="401.94" height="428.605" filterUnits="userSpaceOnUse" color-interpolation-filters="sRGB">
<feFlood flood-opacity="0" result="BackgroundImageFix"/>
<feColorMatrix in="SourceAlpha" type="matrix" values="0 0 0 0 0 0 0 0 0 0 0 0 0 0 0 0 0 0 127 0" result="hardAlpha"/>
<feOffset/>
<feGaussianBlur stdDeviation="30.3407"/>
<feComposite in2="hardAlpha" operator="out"/>
<feColorMatrix type="matrix" values="0 0 0 0 1 0 0 0 0 1 0 0 0 0 1 0 0 0 0.3 0"/>
<feBlend mode="normal" in2="BackgroundImageFix" result="effect1_dropShadow_211_47"/>
<feBlend mode="normal" in="SourceGraphic" in2="effect1_dropShadow_211_47" result="shape"/>
</filter>
<filter id="filter2_d_211_47" x="15.588" y="224.103" width="481.183" height="173.155" filterUnits="userSpaceOnUse" color-interpolation-filters="sRGB">
<feFlood flood-opacity="0" result="BackgroundImageFix"/>
<feColorMatrix in="SourceAlpha" type="matrix" values="0 0 0 0 0 0 0 0 0 0 0 0 0 0 0 0 0 0 127 0" result="hardAlpha"/>
<feOffset/>
<feGaussianBlur stdDeviation="15.1704"/>
<feComposite in2="hardAlpha" operator="out"/>
<feColorMatrix type="matrix" values="0 0 0 0 1 0 0 0 0 0.721569 0 0 0 0 0 0 0 0 0.5 0"/>
<feBlend mode="normal" in2="BackgroundImageFix" result="effect1_dropShadow_211_47"/>
<feBlend mode="normal" in="SourceGraphic" in2="effect1_dropShadow_211_47" result="shape"/>
</filter>
<radialGradient id="paint0_radial_211_47" cx="0" cy="0" r="1" gradientUnits="userSpaceOnUse" gradientTransform="translate(194.608 403.437) rotate(79.3558) scale(136.03 508.569)">
<stop offset="0.198608" stop-color="#FFB800"/>
<stop offset="1" stop-color="#FFB800" stop-opacity="0"/>
</radialGradient>
<radialGradient id="paint1_radial_211_47" cx="0" cy="0" r="1" gradientUnits="userSpaceOnUse" gradientTransform="translate(194.608 403.437) rotate(79.3558) scale(136.03 508.569)">
<stop offset="0.198608" stop-color="#FFB800"/>
<stop offset="1" stop-color="#FFB800" stop-opacity="0"/>
</radialGradient>
<linearGradient id="paint2_linear_211_47" x1="253.125" y1="393.956" x2="261.73" y2="520.838" gradientUnits="userSpaceOnUse">
<stop stop-color="#FFB800" stop-opacity="0.2"/>
<stop offset="0.624977" stop-color="#FFB800" stop-opacity="0"/>
</linearGradient>
<clipPath id="clip0_211_47">
<rect width="512" height="512" fill="white"/>
</clipPath>
</defs>
</svg>
